<svg xmlns="http://www.w3.org/2000/svg" width="1200" height="630" viewBox="0 0 1200 630" role="img" aria-label="Générateur de QR Code SimplePlate">
  <rect width="1200" height="630" fill="#FFFFFF"/>
  <rect x="72" y="72" width="1056" height="486" rx="24" fill="#0B0B0B"/>
  <text x="110" y="170" font-family="ui-sans-serif, system-ui" font-size="56" font-weight="900" fill="#FFFFFF">Générateur de QR Code</text>
  <text x="110" y="230" font-family="ui-sans-serif, system-ui" font-size="28" font-weight="700" fill="#D1D5DB">Lien " WiFi " Texte " Téléchargement</text>

  <rect x="110" y="280" width="260" height="260" rx="18" fill="#FFFFFF"/>
  <g transform="translate(130 300)" fill="#0B0B0B">
    <rect width="60" height="60"/>
    <rect x="160" width="60" height="60"/>
    <rect y="160" width="60" height="60"/>
    <rect x="80" y="80" width="20" height="20"/>
    <rect x="120" y="80" width="20" height="20"/>
    <rect x="80" y="120" width="20" height="20"/>
    <rect x="120" y="120" width="20" height="20"/>
    <rect x="160" y="140" width="20" height="20"/>
    <rect x="140" y="160" width="20" height="20"/>
    <rect x="100" y="160" width="20" height="20"/>
    <rect x="160" y="100" width="20" height="20"/>
  </g>

  <rect x="410" y="300" width="680" height="26" rx="13" fill="#FDE047"/>
  <rect x="410" y="342" width="560" height="14" rx="7" fill="#374151"/>
  <rect x="410" y="366" width="520" height="14" rx="7" fill="#374151"/>
  <rect x="410" y="420" width="220" height="48" rx="14" fill="#A78BFA"/>
</svg>
