<svg xmlns="http://www.w3.org/2000/svg" width="1200" height="630" viewBox="0 0 1200 630" role="img" aria-label="Générateur de site web SimplePlate">
  <rect width="1200" height="630" fill="#93C5FD"/>
  <rect x="72" y="72" width="1056" height="486" rx="24" fill="#0B0B0B"/>

  <text x="110" y="170" font-family="ui-sans-serif, system-ui, -apple-system, Segoe UI, Roboto" font-size="56" font-weight="900" fill="#FFFFFF">Générateur de site web</text>
  <text x="110" y="230" font-family="ui-sans-serif, system-ui, -apple-system, Segoe UI, Roboto" font-size="28" font-weight="700" fill="#E5E7EB">Landing page HTML avec preview</text>

  <rect x="110" y="280" width="520" height="250" rx="16" fill="#111827" stroke="#FFFFFF" stroke-width="2"/>
  <rect x="130" y="302" width="180" height="16" rx="8" fill="#FDE047"/>
  <rect x="130" y="336" width="420" height="10" rx="5" fill="#374151"/>
  <rect x="130" y="358" width="380" height="10" rx="5" fill="#374151"/>
  <rect x="130" y="402" width="160" height="40" rx="12" fill="#A78BFA"/>

  <rect x="670" y="280" width="418" height="250" rx="16" fill="#FFFFFF"/>
  <rect x="690" y="302" width="180" height="18" rx="9" fill="#0B0B0B"/>
  <rect x="690" y="338" width="360" height="10" rx="5" fill="#D1D5DB"/>
  <rect x="690" y="360" width="320" height="10" rx="5" fill="#D1D5DB"/>
  <rect x="690" y="404" width="150" height="40" rx="12" fill="#0B0B0B"/>
</svg>
