<svg xmlns="http://www.w3.org/2000/svg" width="1200" height="630" viewBox="0 0 1200 630" role="img" aria-label="SimplePlate : boîte à outils IA">
  <defs>
    <linearGradient id="bg" x1="0" y1="0" x2="1" y2="1">
      <stop offset="0" stop-color="#FDE047"/>
      <stop offset="1" stop-color="#A78BFA"/>
    </linearGradient>
  </defs>
  <rect width="1200" height="630" fill="url(#bg)"/>
  <rect x="72" y="72" width="1056" height="486" rx="24" fill="#0B0B0B" opacity="0.9"/>
  <rect x="110" y="110" width="260" height="72" rx="14" fill="#FFFFFF"/>
  <text x="145" y="158" font-family="ui-sans-serif, system-ui, -apple-system, Segoe UI, Roboto" font-size="40" font-weight="800" fill="#0B0B0B">SimplePlate</text>
  <text x="110" y="270" font-family="ui-sans-serif, system-ui, -apple-system, Segoe UI, Roboto" font-size="54" font-weight="900" fill="#FFFFFF">Boîte à outils IA</text>
  <text x="110" y="336" font-family="ui-sans-serif, system-ui, -apple-system, Segoe UI, Roboto" font-size="28" font-weight="700" fill="#E5E7EB">Créer " Écrire " Structurer " Automatiser</text>

  <!-- icons -->
  <g transform="translate(110 390)">
    <rect width="96" height="96" rx="16" fill="#FDE047"/>
    <path d="M26 32h44v8H26zm0 16h44v8H26zm0 16h30v8H26z" fill="#0B0B0B"/>
  </g>
  <g transform="translate(230 390)">
    <rect width="96" height="96" rx="16" fill="#86EFAC"/>
    <path d="M24 66l18-20 12 12 22-26 6 6-28 34-12-12-12 14z" fill="#0B0B0B"/>
  </g>
  <g transform="translate(350 390)">
    <rect width="96" height="96" rx="16" fill="#93C5FD"/>
    <path d="M28 32h40v40H28z" fill="#0B0B0B" opacity="0.9"/>
    <path d="M34 38h28v28H34z" fill="#93C5FD"/>
  </g>
</svg>
